{"title":"Partners in Crime 2015 S01E06 x264 RB58.mp4","uid":12315367,"size":616779092,"categoryP":"video","categoryS":"tv_shows","magnet":"?xt=urn:btih:75fe7c02086376b9d08d7db2f6d75687f02ded98&amp;dn=Partners+in+Crime+2015+S01E06+x264+RB58.mp4&amp;tr=udp%3A%2F%2Ftracker.openbittorrent.com%3A80&amp;tr=udp%3A%2F%2Fopen.demonii.com%3A1337&amp;tr=udp%3A%2F%2Ftracker.coppersurfer.tk%3A6969&amp;tr=udp%3A%2F%2Fexodus.desync.com%3A6969","seeders":0,"leechers":1,"uploader":"RedBaron58","files":1,"time":1440983031,"description":"Partners in Crime 2015 S01E06 - N or M? pt2 x264 mp4\n &lt;a href=&quot;\nhttp://www.imdb.com/title/tt3574152/&quot; rel=&quot;nofollow&quot; target=&quot;_NEW&quot;&gt;\nhttp://www.imdb.com/title/tt3574152/&lt;/a&gt;\n\nTrailer:\n\n\nPlease be patient My intial upload speed is limited.\nThank you for your kind comments and feedback on my other torrents, your feedback is welcome.\n\n\nAbout the Episode:\nTommy is held captive by the mysterious `N' along with Gilbert Worthing, who reveals that he has \nhidden a vital key that operates the stolen nuclear bomb. \nTuppence comes to the rescue, and together they set out to retrieve the key, but it is hidden \nin the Sans Souci, where the enemy agent is lying in wait. The couple enlist Carter's aid in \ncarrying out an audacious plan to save the lives of thousands of innocent British citizens. \nConclusion of the adventure series based on Agatha Christie's series of novels.\n \nStarring David Walliams and Jessica Raine, with  Matthew Steer,  Christina Cole and James Fleet\n\n\nI hope you enjoy.\n\nTechnical:\n\nGeneral\nComplete name                            : H:Partners in Crime 2015 S01E06 x264 RB58.mp4\nFormat                                   : MPEG-4\nFormat profile                           : Base Media\nCodec ID                                 : isom\nFile size                                : 588 MiB\nDuration                                 : 54mn 2s\nOverall bit rate                         : 1 522 Kbps\nWriting application                      : Lavf54.63.104\n\nVideo\nID                                       : 1\nFormat                                   : AVC\nFormat/Info                              : Advanced Video Codec\nFormat profile                           : &lt;a class=&quot;__cf_email__&quot; href=&quot;/cdn-cgi/l/email-protection&quot; data-cfemail=&quot;de96b7b9b69e92edf0ee&quot;&gt;[email&amp;#160;protected]&lt;/a&gt;&lt;script data-cfhash='f9e31' type=&quot;text/javascript&quot;&gt;\n/* &lt;![CDATA[ */!function(){try{var t=&quot;currentScript&quot;in document?document.currentScript:function(){for(var t=document.getElementsByTagName(&quot;script&quot;),e=t.length;e--;)if(t[e].getAttribute(&quot;data-cfhash&quot;))return t[e]}();if(t&amp;&amp;t.previousSibling){var e,r,n,i,c=t.previousSibling,a=c.getAttribute(&quot;data-cfemail&quot;);if(a){for(e=&quot;&quot;,r=parseInt(a.substr(0,2),16),n=2;a.length-n;n+=2)i=parseInt(a.substr(n,2),16)^r,e+=String.fromCharCode(i);e=document.createTextNode(e),c.parentNode.replaceChild(e,c)}t.parentNode.removeChild(t);}}catch(u){}}()/* ]]&gt; */&lt;/script&gt;\nFormat settings, CABAC                   : Yes\nFormat settings, ReFrames                : 4 frames\nCodec ID                                 : avc1\nCodec ID/Info                            : Advanced Video Coding\nDuration                                 : 54mn 2s\nBit rate                                 : 1 400 Kbps\nWidth                                    : 832 pixels\nHeight                                   : 468 pixels\nDisplay aspect ratio                     : 16:9\nFrame rate mode                          : Constant\nFrame rate                               : 25.000 fps\nColor space                              : YUV\nChroma subsampling                       : 4:2:0\nBit depth                                : 8 bits\nScan type                                : Progressive\nBits/(Pixel*Frame)                       : 0.144\nStream size                              : 541 MiB (92%)\nWriting library                          : x264 core 123 r2189 35cf912\nEncoding settings                        : cabac=1 / ref=3 / deblock=1:0:0\n\nAudio\nID                                       : 2\nFormat                                   : AAC\nFormat/Info                              : Advanced Audio Codec\nFormat profile                           : LC\nCodec ID                                 : 40\nDuration                                 : 54mn 2s\nBit rate mode                            : Constant\nBit rate                                 : 113 Kbps\nChannel(s)                               : 2 channels\nChannel positions                        : Front: L R\nSampling rate                            : 48.0 KHz\nCompression mode                         : Lossy\nStream size                              : 43.7 MiB (7%)","torrent":{"xt":"urn:btih:75fe7c02086376b9d08d7db2f6d75687f02ded98","amp;dn":"Partners+in+Crime+2015+S01E06+x264+RB58.mp4","amp;tr":["udp%3A%2F%2Ftracker.openbittorrent.com%3A80","udp%3A%2F%2Fopen.demonii.com%3A1337","udp%3A%2F%2Ftracker.coppersurfer.tk%3A6969","udp%3A%2F%2Fexodus.desync.com%3A6969"],"infoHash":"75fe7c02086376b9d08d7db2f6d75687f02ded98","infoHashBuffer":{"type":"Buffer","data":[117,254,124,2,8,99,118,185,208,141,125,178,246,215,86,135,240,45,237,152]},"announce":[],"urlList":[]}}